<svg xmlns="http://www.w3.org/2000/svg" viewBox="0 0 151.2 151.44" id="google">
  <g>
    <g>
      <circle cx="75.59" cy="75.77" r="64.59" fill="#e8e8e8"></circle>
      <circle cx="75.59" cy="75.77" r="64.59" fill="#e8e8e8"></circle>
      <g style="mix-blend-mode:multiply">
        <g>
          <path fill="#f2c212" d="M59.67,75.77a16.5,16.5,0,0,1,.84-5.19l-9.43-7.2a28.14,28.14,0,0,0,0,24.78L60.5,81a16.73,16.73,0,0,1-.83-5.18"></path>
          <path fill="#db3136" d="M76.23,59.24a16.23,16.23,0,0,1,10.32,3.69l8.15-8.14a28,28,0,0,0-43.62,8.59l9.43,7.2A16.51,16.51,0,0,1,76.23,59.24"></path>
          <path fill="#38a64c" d="M76.23,92.31A16.51,16.51,0,0,1,60.51,81l-9.43,7.2a27.92,27.92,0,0,0,25.15,15.59,26.75,26.75,0,0,0,18.26-7l-9-6.93a17.22,17.22,0,0,1-9.3,2.45"></path>
          <path fill="#4581ba" d="M103,75.77a23.25,23.25,0,0,0-.64-5.08H76.23V81.5h15a12.57,12.57,0,0,1-5.73,8.36l9,6.93C99.63,92,103,84.9,103,75.77"></path>
        </g>
      </g>
    </g>
  </g>
</svg>
